<?xml version="1.0" encoding="UTF-8" standalone="no"?>
<!-- Created with Inkscape (http://www.inkscape.org/) -->

<svg
   width="100%"
   viewBox="0 0 130 100.269"
   version="1.1"
   xml:space="preserve"
   sodipodi:docname="Selecta_2003.svg"
   inkscape:version="1.4 (86a8ad7, 2024-10-11)"
   id="svg1"
   xmlns:inkscape="http://www.inkscape.org/namespaces/inkscape"
   xmlns:sodipodi="http://sodipodi.sourceforge.net/DTD/sodipodi-0.dtd"
   xmlns:xlink="http://www.w3.org/1999/xlink"
   xmlns="http://www.w3.org/2000/svg"
   xmlns:svg="http://www.w3.org/2000/svg"
   xmlns:ffdec="https://www.free-decompiler.com/flash"><sodipodi:namedview
     id="namedview1"
     pagecolor="#ffffff"
     bordercolor="#000000"
     borderopacity="0.25"
     inkscape:showpageshadow="2"
     inkscape:pageopacity="0.0"
     inkscape:pagecheckerboard="0"
     inkscape:deskcolor="#d1d1d1"
     inkscape:document-units="mm"
     inkscape:zoom="2.0397423"
     inkscape:cx="53.438123"
     inkscape:cy="35.053447"
     inkscape:window-width="1245"
     inkscape:window-height="981"
     inkscape:window-x="-8"
     inkscape:window-y="0"
     inkscape:window-maximized="0" /><defs
     id="defs2"><g
       id="shape1"><path
         d="m 328,95.25 q -3.75,11.4 -10.95,22.25 -7.2,10.85 -17.6,20.6 -10.45,9.75 -23.75,17.9 -6.7,4.1 -14.45,7.65 -7.75,3.5 -16.25,6.55 -3.25,1.15 -5,0.75 -1.7,-0.4 -1.25,-1.95 0.45,-1.6 3.75,-4.15 l 10.15,-7.8 q 5.9,-4.7 12.55,-10.8 6.65,-6.15 13.1,-13.5 6.45,-7.4 11.7,-15.9 5.25,-8.5 8.4,-17.9 3.15,-9.4 3.25,-19.6 0,-8.35 -3,-16.35 -3,-8 -8.85,-15 -5.8,-7 -14.25,-12.35 -8.5,-5.35 -19.45,-8.4 -10.95,-3.05 -24.2,-3.1 -10.15,0.05 -19.05,2 -8.95,1.9 -16.4,4.85 -7.5,2.95 -13.2,6.1 -5.75,3.1 -9.45,5.6 l -5.15,3.5 q -1.75,1.25 -3.15,1.1 -1.35,-0.15 -2.85,-1.5 -4.6,-4.1 -11.35,-8.1 -6.8,-4 -15.3,-7.25 -8.55,-3.25 -18.4,-5.2 -9.9,-1.9 -20.7,-1.95 -10.6,0 -20.4,2.25 -9.85,2.3 -18.25,6.7 -8.4,4.45 -14.7,10.95 -6.3,6.5 -9.8,14.95 -3.55,8.45 -3.6,18.75 0.05,10.45 3.75,19.5 3.7,9.1 10.25,16.9 6.55,7.8 15.15,14.3 8.6,6.55 18.45,11.9 9.9,5.35 20.25,9.5 10.35,4.15 20.45,7.25 10.05,3.05 19.05,5.05 l 16.1,2.95 11.55,0.95 5.65,-1.25 q 4.15,-1.3 10.05,-3.9 5.9,-2.6 12.55,-6.65 6.6,-4.05 13.05,-9.6 6.45,-5.55 11.75,-12.65 5.3,-7.1 8.45,-15.85 3.15,-8.75 3.25,-19.25 -0.1,-8.7 -3.3,-15.1 -3.25,-6.4 -8.85,-9.95 -5.6,-3.55 -12.75,-3.6 -6.95,0.1 -12.5,2.6 -5.55,2.45 -9.95,6.3 -4.4,3.8 -7.85,7.9 l -6.1,7.45 q -1.3,1.55 -2.9,1.8 -1.6,0.25 -2.85,-1.8 -2.4,-4.45 -5.9,-8.75 -3.55,-4.35 -8.1,-7.9 -4.55,-3.6 -10.1,-5.75 -5.5,-2.15 -11.9,-2.2 -7.65,0.1 -13.05,3.3 -5.4,3.25 -8.3,8.45 -2.9,5.25 -2.95,11.4 0.1,7.1 3.05,13.35 2.95,6.2 7.95,11.55 5,5.3 11.15,9.7 6.2,4.4 12.75,7.85 6.5,3.45 12.55,6 l 10.75,4.15 q 1.8,0.65 2.3,1.85 0.55,1.15 -0.4,2 -0.9,0.9 -3.4,0.7 -5.7,-0.55 -13.35,-2.15 -7.7,-1.6 -16.35,-4.35 -8.7,-2.8 -17.45,-6.7 -8.8,-3.95 -16.8,-9.1 -7.95,-5.15 -14.2,-11.55 -6.25,-6.45 -9.9,-14.2 -3.6,-7.7 -3.7,-16.8 0,-6.65 2.85,-13.2 2.8,-6.55 8.45,-11.9 5.7,-5.4 14.15,-8.65 8.5,-3.2 19.75,-3.3 10.2,0.1 19.7,3.4 9.45,3.3 17.45,8.9 7.95,5.55 13.7,12.45 0.85,0.95 2,0.95 1.1,-0.05 1.9,-0.8 l 3.15,-2.9 q 2.85,-2.5 7.75,-6 4.9,-3.55 11.4,-7 Q 196.3,51 204,48.7 q 7.75,-2.35 16.2,-2.45 7.65,0 15.05,2.6 7.45,2.65 13.5,7.9 6.05,5.3 9.7,13.35 3.65,8.05 3.7,18.95 -0.05,9 -2.9,17.85 -2.85,8.85 -7.75,17.1 -4.9,8.25 -11.1,15.5 -6.2,7.3 -13.05,13.2 -6.8,5.9 -13.5,10.05 -8.55,5.3 -16.6,9.15 -8,3.85 -14.75,6.3 -6.75,2.5 -11.5,3.6 l -1.05,0.25 -5.75,0.7 -7.3,-0.7 q -18,-1.95 -35.15,-6.3 Q 101.2,170.55 82.9,162.45 64.55,154.4 49.4,143.9 34.25,133.4 23.2,120.95 12.15,108.5 6.1,94.6 0.1,80.65 0,65.75 -0.05,56.9 2.8,47.7 5.65,38.45 11.85,29.95 18,21.45 27.95,14.7 37.85,7.95 51.95,4.05 66.05,0.1 84.75,0 97.8,0.05 109.6,2.35 q 11.85,2.25 22,5.9 10.1,3.7 18,7.9 7.85,4.2 12.95,8.15 1.75,1.35 3,1.35 1.25,0 2.55,-0.95 l 7.5,-4.85 q 4.8,-3 11.45,-6.35 6.65,-3.35 15,-6.4 8.4,-3 18.25,-4.9 9.85,-1.9 21.05,-1.95 11.3,0 22.3,1.9 11,1.9 21.15,5.8 10.1,3.9 18.65,9.85 8.55,5.9 14.9,13.95 6.35,8 9.9,18.2 3.5,10.15 3.55,22.5 0,11.4 -3.8,22.8"
         fill="#ffffff"
         fill-rule="evenodd"
         stroke="none"
         id="path3" /></g><g
       id="sprite0"
       transform="translate(160.6,43.85)"><use
         ffdec:characterId="66"
         height="87.699997"
         transform="translate(-160.6,-43.85)"
         width="321.20001"
         xlink:href="#shape2"
         id="use4" /></g><g
       id="shape2"
       transform="translate(160.6,43.85)"><path
         d="m 159,-25.3 q -1.6,2.95 -4.5,4.6 -3,1.65 -6.05,1.65 -3.15,0 -6.1,-1.65 -2.85,-1.65 -4.5,-4.6 -1.65,-3.05 -1.6,-6.15 -0.05,-3.2 1.6,-6.25 1.65,-3 4.55,-4.55 2.95,-1.6 6.05,-1.6 3.05,0 5.95,1.6 2.9,1.55 4.55,4.55 1.65,3 1.65,6.25 -0.05,3.15 -1.6,6.15 m -0.45,-6.15 q 0,-2.8 -1.35,-5.15 -1.35,-2.55 -3.8,-3.85 -2.45,-1.35 -4.95,-1.35 -2.6,0 -5.05,1.35 -2.4,1.3 -3.8,3.85 -1.35,2.45 -1.35,5.15 0,2.65 1.35,5.1 1.25,2.45 3.75,3.9 2.4,1.35 5.1,1.35 2.5,0 5.05,-1.35 2.4,-1.45 3.75,-3.9 1.3,-2.45 1.3,-5.1 M 126.7,-20.3 q 2.65,0.5 3.15,3.25 0.25,1.35 -0.05,2.65 l 6.6,3.15 q 6.7,3.9 7.05,8 0.75,8.15 -6.6,11.55 -3.7,1.65 -7.55,1.7 l -5.55,-3.1 q 2.2,-0.75 4.3,-2 4.15,-2.5 3.6,-5.2 -0.4,-1.9 -3.35,-2.7 l -2.95,-0.4 q -2.75,6 -6.8,8 -4.1,1.95 -9.55,0.8 l 0.6,4.65 2.45,-0.05 5.6,0.7 q 8.3,1.8 9.7,7.55 2.3,9.5 -8.15,17.4 -4.2,3.2 -9.25,5.1 -4.9,1.8 -8.5,1.75 -14.5,-0.25 -13.35,-10.15 0.45,-3.85 5.15,-7.15 5.9,-4.1 14.35,-2.85 3.4,0.5 3.1,4.3 -0.35,3.75 -3.75,4.8 -2.25,-4.05 -6.1,-3 -1.2,0.35 -2.05,1.5 -0.9,1.2 -0.8,2.45 0.35,3.2 7.15,2.9 7.9,-0.45 11.1,-6.25 1.2,-2.25 1.4,-4.6 0.15,-2.2 -0.5,-3.45 -1.6,-2.9 -6.15,-3.9 l -10.65,0.3 Q 94.8,18.5 88.25,24 85,26.75 82.85,29.2 V 17.15 l 6.3,-3 q 7.05,-3.1 11.2,-3.5 l -0.75,-6 q -10.8,6.6 -14.65,6 -2.35,-0.4 -3.85,-2.7 L 80.05,5.75 77.45,8.3 Q 74.1,12.35 70.4,19.45 70.3,19.6 60.9,8.75 69.9,-2 81.55,-8.05 q 3.5,-1.8 11.7,-4.4 l 7.4,-2.2 q 3.1,-4.85 0.5,-6.8 -4.25,-3.05 -17.2,4.55 -6.55,3.8 -12.2,8.2 l 3.65,-14.7 15.65,-3.9 q 16.4,-3.5 20.45,-1.35 4,2.1 2.3,7.8 -0.85,2.85 -2.45,5.3 l 8.3,-0.6 2.6,-2.65 q 2.05,-1.9 4.45,-1.5 m 26.45,-14.05 q 0,1.5 -1,2.55 -1,1 -2.75,1.2 l 1.15,0.7 1.9,2.65 1.65,2.65 h -2.6 l -1.15,-2.1 q -1.55,-2.65 -2.25,-3.1 -0.55,-0.5 -1.65,-0.5 h -1.3 v 5.7 h -2.05 l 2.5,-7.5 h -0.45 v -4.05 H 147 l 0.55,-1.8 3.4,0.4 q 1,0.3 1.65,1.25 0.55,0.85 0.55,1.95 m -2.55,-0.85 q -0.4,-0.55 -0.9,-0.75 l -2.1,-0.2 H 147 l -1.4,4.05 h 2.15 q 1.8,0 2.5,-0.55 0.7,-0.65 0.7,-1.55 l -0.35,-1 M 7.4,23.9 8.6,31.9 16.35,29.65 18,25.9 q 1.1,-4 -1.25,-5.1 -2.3,-1.2 -6.05,0.85 -1.9,1 -3.3,2.25 M 2.6,-0.6 Q -2.8,-2.25 -4.05,-1.2 -6,0.3 -5.2,2.5 q 0.8,2.35 4.2,2.35 4.85,0 8.7,-3.6 L 2.6,-0.6 m -9.75,18.35 -0.8,-0.15 q -0.25,-0.4 0.1,-1.05 0.65,-1.3 3.8,-2.6 3.1,-1.25 6.7,0.65 1.8,0.9 3,2.1 l 1.9,-1.3 q 2.35,-1.5 4.7,-2.45 7.4,-3 11.6,0.55 6.75,5.8 2.7,16.5 -2,5.35 -5.4,9.6 L 4.1,41.2 Q -4.7,40.6 -3.6,28.45 -3.1,21.65 -5.45,19 -6.2,18.1 -7.15,17.75 M -22.45,4.8 q 6.5,-0.3 7.5,1.7 1.15,2.35 -0.35,5.55 -1,2.15 -3.85,5.85 -3.15,3.9 -3.8,5.2 -1.45,2.5 -0.15,3.8 2.15,2.15 5.55,-2.55 l 3.05,-5.15 4.55,1.6 -0.95,2.5 q -1.3,3.05 -2.85,5.75 -4.95,8.6 -10.75,10.8 -4.5,1.6 -8.2,0.3 -3.3,-1.2 -4.7,-4.2 -2.6,-5.35 3.9,-12.7 l 4.6,-4.9 q 2,-2.45 1.45,-3.65 -0.85,-2.05 -5.25,0.4 -5.05,2.75 -9.45,9.3 -0.3,0.4 -5.25,-9.5 l 5,-3 q 5.65,-3.25 9.1,-4.7 4.55,-2.1 10.85,-2.4 M -26,-16.3 q -2.2,-1.3 -5.1,0.2 l -2.4,1.7 0.95,10.05 q 4.65,-1.65 5.6,-2.8 1.4,-1.7 2.15,-4.25 1.05,-3.55 -1.2,-4.9 M 5.25,-28.75 q 3.3,-1.8 7.45,-3.2 l 3.45,-1.05 7.2,11.2 -6.3,0.55 q -6.4,1 -6.9,3.4 -0.3,1.2 1.6,2 0.75,0.3 4.65,1.3 7.4,1.95 8.75,5.65 1.55,4.05 -1.8,7.3 l 2,0.9 4.85,2.8 q 7.65,5 11.9,11.95 L 34.65,22.5 Q 32.1,18.4 28.6,14.15 21.5,5.7 16,5.45 L 5.6,9.2 q -9.85,3.45 -12.9,2.15 -4.65,-1.9 -5.65,-8.1 -0.95,-6.15 2.5,-9.9 3.45,-3.75 13,-1.05 l 6.25,1.95 3.05,0.1 q 0.6,-1.4 -1.55,-2.5 l -5.2,-2 q -8.45,-2.8 -9.05,-5.95 -1.45,-7 9.2,-12.65 M 99.5,0 v -5.9 q 0,-1.2 -6.4,2.4 l -6.35,3.9 0.85,1.55 q 1.15,1.6 3,2 Q 93.45,4.6 99.5,0 m 9.85,1.85 q 3.9,0 5.85,-4.2 l 1.15,-4.25 -2.95,-0.15 -3.55,0.35 q -0.55,0.4 -0.7,4.35 -0.15,3.9 0.2,3.9 m -201.1,-1.15 -1.2,0.8 1.15,13.7 5.25,-1.75 q 1.2,-0.8 2.15,-2.5 1.85,-3.45 0.7,-8 -1.25,-4.7 -5.35,-3.5 -1.3,0.3 -2.7,1.25 m -1.85,-10.85 q 2.8,-1.35 5.4,-2.15 8.35,-2.55 12.2,1.45 4.4,4.6 3.8,16.15 -0.55,11.25 -4.8,14.95 -3.45,3.05 -13.8,4.65 l -9.75,0.95 q -2.55,-19.85 -3.5,-24.8 -0.65,-3.35 -3.6,-6.3 l -2.8,-2.35 1.9,-2.3 q 2.25,-2.4 4,-2.75 4.45,-1 8.75,3.7 l 2.2,-1.2 m -20,-22.65 q 0.4,2.3 0.3,4.4 -0.4,6.7 -5.8,8.95 -1.55,0.65 -12.45,4 -5.9,1.8 -5.55,3.75 0.5,3.3 16.55,3.9 8.3,0.35 9.05,1 1.45,1.3 2.1,3.55 0.55,2.1 -0.05,3.15 -0.35,0.55 -2.9,1.25 -2.9,0.75 -4.1,1.8 -2.35,2 -1.2,4.2 l 4.35,-0.1 q 4.65,0.35 6.4,2.35 2.95,3.4 2.35,9.25 -0.6,5.3 -2.35,5.6 l -8.5,-3 q 2.85,-4.55 0.85,-7.3 -1.3,-1.8 -2.35,-1.95 l -0.75,0.15 0.5,29.45 -10.2,2.25 q -5.95,0 -1.85,-16.7 1.2,-5.25 0.9,-8.65 -0.65,-2.85 -0.6,-3.9 0,-1.35 -6.7,7.2 -6.95,8.9 -8.55,14.85 -1.6,5.75 -8,1.85 -2,-1.2 -4.2,-3.2 l -1.8,-1.8 12.45,-13.05 11.35,-11.8 3.35,-3.15 q -3.55,0.65 -7.8,2.3 -8.55,3.4 -12.3,8.55 l -9.5,-8.8 3.7,-2.5 q 4.6,-2.8 9.25,-4.25 2,-0.7 9.35,-1.9 5.45,-0.9 5.15,-1.8 -0.2,-0.55 -3.4,-0.7 L -143.4,-4 q -9.8,-1 -9.45,-6.1 0.3,-5.75 9.8,-8.7 l 7.4,-2 q 3.9,-1.15 5.3,-2.4 2.3,-2.1 1.9,-4.7 l -0.9,-2.25 15.3,-4.55 0.45,1.9 m 62.8,13.95 q 0.7,-1.25 2.2,-2.95 3.1,-3.55 6.05,-3.8 4.75,-0.45 8.3,3.75 1.85,-2.25 4.85,-3.9 6.05,-3.45 11.8,-0.75 3.35,1.5 4.55,5.35 1.1,3.55 0.05,8 -1.15,4.5 -4,8.25 -3.15,4.05 -7.6,5.95 -4.85,2.05 -10.45,3.2 l -4.7,0.75 -5.7,-18.7 q -0.55,-1.95 -3,-3.75 -2.15,-1.7 -2.35,-1.4"
         fill="#ffffff"
         fill-rule="evenodd"
         stroke="none"
         id="path4" /></g><g
       id="button0"
       transform="translate(3.85,5.25)"><use
         ffdec:characterId="5"
         height="8.3000002"
         width="48.700001"
         xlink:href="#shape3"
         id="use5" /></g><g
       id="shape3"><path
         d="M 4.15,0.6 Q 4.8,1.2 4.8,2.4 V 2.65 H 3.35 V 2.55 L 3.1,1.55 Q 2.85,1.2 2.4,1.2 L 1.85,1.4 1.6,1.9 q 0,0.35 0.15,0.55 l 0.35,0.35 1.55,1 0.7,0.6 0.5,0.65 0.15,1 Q 5,7.1 4.35,7.7 3.75,8.3 2.55,8.3 1.3,8.3 0.65,7.6 0,6.9 0,5.7 V 5.35 H 1.45 V 5.7 L 1.6,6.55 2,6.95 2.55,7.1 3.2,6.8 3.45,6.2 3.25,5.55 2.6,5 1.25,4.1 0.4,3.2 Q 0.1,2.7 0.1,2.05 0.1,1.4 0.4,0.95 L 1.2,0.25 2.45,0 q 1.1,0 1.7,0.6 M 5.9,0.15 H 7.4 V 3.6 L 9.25,0.15 h 1.7 L 8.9,3.6 11,8.1 H 9.3 L 8,4.95 7.4,5.7 V 8.1 H 5.9 V 0.15 m 5.9,0 h 1.5 V 8.1 H 11.8 V 0.15 m 5.7,1.5 Q 17.25,1.35 16.65,1.35 H 15.9 V 3.7 h 0.75 L 17.5,3.4 17.8,2.5 17.5,1.65 m 1.6,-0.35 0.25,1.2 -0.25,1.2 -0.75,0.85 -1.1,0.3 H 15.9 V 8.1 H 14.4 V 0.15 h 2.85 q 0.65,0 1.1,0.3 L 19.1,1.3 m 3.95,-1.15 h 1.5 V 8.1 h -1.5 V 0.15 m 7.65,0 V 8.1 H 29.1 L 26.9,2.35 h -0.05 l 0.15,0.9 0.05,1.1 V 5.3 8.1 h -1.4 V 0.15 h 1.65 l 2.2,5.8 -0.15,-1 -0.05,-1 v -1 -2.8 h 1.4 m 6,0 v 1.2 H 34.85 V 8.1 H 33.3 V 1.35 h -1.85 v -1.2 h 5.25 m 4.35,2.3 -0.3,-0.9 -0.8,-0.2 h -1 V 3.6 h 1 l 0.55,-0.1 0.4,-0.35 0.15,-0.7 m 1.3,-1.3 0.25,1.05 -0.35,1.35 Q 41.9,4 41.4,4.1 q 0.4,0.1 0.65,0.3 l 0.35,0.55 0.05,0.55 v 1.05 l 0.05,0.65 0.1,0.5 0.25,0.15 V 8.1 h -1.5 L 41.05,7.55 40.95,6.8 V 5.9 L 40.9,5.3 40.6,4.9 Q 40.4,4.75 40.05,4.75 h -1.1 V 8.1 h -1.5 V 0.15 h 3.15 l 1.05,0.3 0.7,0.7 M 46.9,1.6 Q 46.6,1.25 46.15,1.2 45.6,1.25 45.35,1.55 45.1,1.9 45.1,2.55 V 5.8 q 0,0.6 0.25,0.95 0.25,0.35 0.8,0.35 0.45,0 0.75,-0.35 L 47.15,5.8 V 2.55 L 46.9,1.6 m 0.55,-1.35 q 0.6,0.3 0.9,0.85 0.35,0.6 0.35,1.65 V 5.6 q 0,1 -0.35,1.6 -0.3,0.6 -0.9,0.85 L 46.15,8.3 44.8,8.05 Q 44.2,7.8 43.9,7.2 43.55,6.6 43.55,5.6 V 2.75 q 0,-1 0.35,-1.6 0.3,-0.6 0.9,-0.9 L 46.15,0 l 1.3,0.25"
         fill="#ffffff"
         fill-rule="evenodd"
         stroke="none"
         id="path5" /></g></defs><path
     id="path2185"
     d="M 33.21296,0 C 8.7355945,0 0,14.295623 0,25.765869 c 0,23.288158 30.176324,43.049242 64.325273,45.84113 2.096614,0.165619 10.570141,-2.320182 19.45566,-7.836214 8.660727,-5.388771 18.935277,-17.151355 18.935277,-28.890227 0,-11.364599 -8.541268,-16.754533 -16.435172,-16.754533 -11.043622,0 -20.286989,9.045913 -20.676257,9.428882 -0.38576,0.393956 -1.10275,0.465916 -1.536857,-0.05478 -4.432563,-5.335032 -11.959872,-9.697082 -19.903178,-9.697082 -11.801451,0 -17.717781,7.639263 -17.717781,14.508675 0,16.641666 25.631576,24.436689 35.951293,25.41757 1.967067,0.191492 1.983784,-1.31037 0.580327,-1.789555 -7.255173,-2.501562 -22.789307,-9.440089 -22.789307,-20.611145 0,-4.742059 3.553578,-9.053194 9.499162,-9.053194 6.698864,0 11.608274,5.06371 14.113867,9.625769 0.61547,1.128586 1.61091,0.779507 2.253609,0.0052 2.82804,-3.399859 7.002702,-9.49451 14.253911,-9.49451 5.554396,0 9.757544,4.454912 9.757544,11.226704 0,19.146113 -22.793496,27.093954 -25.36176,27.093954 -10.3272,0 -52.890828,-10.078044 -52.890828,-34.597888 0,-13.455099 12.396171,-21.0178388 26.146207,-21.0178388 11.272333,0 20.986254,4.5706668 25.768453,8.8232338 0.796145,0.702083 1.409759,0.808277 2.349728,0.164848 1.82676,-1.245314 11.584492,-8.6459838 24.779366,-8.6459838 17.300103,0 27.326493,10.8146748 27.326493,21.6353718 0,15.928803 -16.67042,28.654336 -23.173775,33.493046 -2.641939,1.958406 -1.53164,2.9979 0.982886,2.087211 4.409349,-1.578015 8.521339,-3.414997 12.028209,-5.563484 13.88519,-8.452815 21.97747,-20.843589 21.97747,-32.717383 0,-19.4002327 -17.83006,-28.3052493 -35.4397,-28.3052493 -14.586565,0 -25.178608,7.2363925 -28.694373,9.5859782 C 65.154761,10.148105 64.611381,10.23359 63.685002,9.5193156 58.408615,5.4704183 46.772022,0 33.21296,0 Z m 77.49811,80.560974 -9.19169,17.959627 3.57808,1.748729 1.60972,-3.490741 h 7.94474 l 1.62212,3.440101 3.55069,-1.698089 z m -94.154458,0.540019 c -3.199865,0 -5.539197,2.636136 -5.539197,5.763472 0,2.610932 1.663553,4.318925 4.057117,5.120618 l 1.794206,0.592212 c 0.831739,0.285289 1.48208,0.776771 1.48208,1.733744 0,0.931702 -0.831513,1.577682 -1.714107,1.577682 -1.274887,0 -2.23774,-0.90592 -2.967778,-1.837614 l -2.80758,2.664953 c 1.507337,2.065624 3.276163,3.126941 5.851322,3.126941 3.145408,0 5.539197,-2.61073 5.539197,-5.687508 v -0.07545 c 0,-2.459261 -1.456558,-4.2688 -3.795634,-5.070492 l -1.874304,-0.646472 c -0.780932,-0.28168 -1.612305,-0.696681 -1.612305,-1.653646 0,-0.928093 0.704185,-1.604036 1.637626,-1.604036 1.224009,0 2.135747,1.01184 2.782259,1.939933 l 2.83652,-2.766756 C 20.744135,82.314056 19.106363,81.10099 16.556612,81.10099 Z m 62.172949,0 c -4.911153,0 -8.918835,4.137369 -8.918835,9.357568 0,5.274579 3.619066,9.38444 8.530229,9.38444 2.558787,0 5.506199,-1.318537 7.135481,-3.33468 l -2.326473,-2.89543 c -1.087776,1.292985 -2.662559,2.197798 -4.420402,2.197798 -2.741739,0 -4.732011,-2.352039 -4.732011,-5.352128 0,-2.997632 1.990272,-5.324223 4.732011,-5.324223 1.705859,0 3.075443,1.007879 4.004924,2.248959 L 85.425277,84.43619 85.217021,84.177291 C 83.613719,82.18712 81.261209,81.100993 78.729561,81.100993 Z M 26.17463,81.388831 V 99.623893 H 36.352303 V 95.802421 H 30.12581 v -3.384289 h 5.968111 V 88.595626 H 30.12581 V 85.21237 h 6.199105 v -3.823539 z m 15.140678,0 v 18.235062 h 9.972518 v -3.821472 h -6.021338 v -14.41359 z m 14.25236,0 v 18.235062 h 10.177673 v -3.821472 h -6.226493 v -3.384289 h 5.968111 V 88.595626 H 59.518848 V 85.21237 h 6.199104 v -3.823539 z m 32.170646,0 v 3.821472 h 5.416723 V 99.62441 h 3.95118 V 85.210303 h 5.295283 v -3.821472 z m 22.896796,6.869348 2.31148,4.902543 h -4.57181 z"
     style="fill:#e83426;fill-opacity:1" /></svg>
