<?xml version="1.0" encoding="UTF-8" standalone="no"?>
<!-- Created with Inkscape (http://www.inkscape.org/) -->

<svg
   width="130mm"
   height="103.404mm"
   viewBox="0 0 130 103.404"
   version="1.1"
   id="svg2719"
   xml:space="preserve"
   xmlns:xlink="http://www.w3.org/1999/xlink"
   xmlns="http://www.w3.org/2000/svg"
   xmlns:svg="http://www.w3.org/2000/svg"
   xmlns:ffdec="https://www.free-decompiler.com/flash"><defs
     id="defs2716"><linearGradient
       id="linearGradient4"><stop
         style="stop-color:#ba1a1a;stop-opacity:1;"
         offset="0"
         id="stop1" /><stop
         style="stop-color:#e1201d;stop-opacity:1;"
         offset="1"
         id="stop4" /></linearGradient><linearGradient
       id="linearGradient3"><stop
         style="stop-color:#b7060e;stop-opacity:1;"
         offset="0"
         id="stop2" /><stop
         style="stop-color:#dc1213;stop-opacity:1;"
         offset="1"
         id="stop3" /></linearGradient><linearGradient
       xlink:href="#linearGradient3"
       id="linearGradient9131"
       x1="755.71429"
       y1="440"
       x2="755.71429"
       y2="785.71429"
       gradientUnits="userSpaceOnUse" /><linearGradient
       id="linearGradient9129"><stop
         style="stop-color:#c8061c;stop-opacity:1"
         offset="0"
         id="stop9125" /><stop
         style="stop-color:#e70b21;stop-opacity:1"
         offset="1"
         id="stop9127" /></linearGradient><linearGradient
       xlink:href="#SVGID_1_"
       id="linearGradient7261"
       gradientUnits="userSpaceOnUse"
       gradientTransform="matrix(0.55889869,0,0,0.55889869,-42.731675,409.17619)"
       x1="0.00048828131"
       y1="0.00048828131"
       x2="324.99039"
       y2="324.99039" /><linearGradient
       id="SVGID_1_"
       gradientUnits="userSpaceOnUse"
       x1="0.00048828131"
       y1="0.00048828131"
       x2="324.99039"
       y2="324.99039"
       gradientTransform="matrix(1.9859695,0,0,1.9859695,-47.470387,-552.83096)"><stop
         offset="0.3552"
         style="stop-color:#E64415"
         id="stop5584" /><stop
         offset="0.4314"
         style="stop-color:#E74B14"
         id="stop5586" /><stop
         offset="0.5414"
         style="stop-color:#E95E0F"
         id="stop5588" /><stop
         offset="0.6719"
         style="stop-color:#ED7A01"
         id="stop5590" /><stop
         offset="0.8181"
         style="stop-color:#F49E00"
         id="stop5592" /><stop
         offset="0.9756"
         style="stop-color:#FDC600"
         id="stop5594" /><stop
         offset="1"
         style="stop-color:#FFCC00"
         id="stop5596" /></linearGradient><linearGradient
       xlink:href="#linearGradient9129"
       id="linearGradient9131-0"
       x1="755.71429"
       y1="440"
       x2="755.71429"
       y2="785.71429"
       gradientUnits="userSpaceOnUse" /><linearGradient
       xlink:href="#linearGradient4"
       id="linearGradient5"
       gradientUnits="userSpaceOnUse"
       gradientTransform="matrix(0.34927346,0,0,0.34927346,-690.37913,-390.58243)"
       x1="2162.8083"
       y1="1221.7671"
       x2="2162.8083"
       y2="1323.7985" /><g
       id="shape1"><path
         d="m 328,95.25 q -3.75,11.4 -10.95,22.25 -7.2,10.85 -17.6,20.6 -10.45,9.75 -23.75,17.9 -6.7,4.1 -14.45,7.65 -7.75,3.5 -16.25,6.55 -3.25,1.15 -5,0.75 -1.7,-0.4 -1.25,-1.95 0.45,-1.6 3.75,-4.15 l 10.15,-7.8 q 5.9,-4.7 12.55,-10.8 6.65,-6.15 13.1,-13.5 6.45,-7.4 11.7,-15.9 5.25,-8.5 8.4,-17.9 3.15,-9.4 3.25,-19.6 0,-8.35 -3,-16.35 -3,-8 -8.85,-15 -5.8,-7 -14.25,-12.35 -8.5,-5.35 -19.45,-8.4 -10.95,-3.05 -24.2,-3.1 -10.15,0.05 -19.05,2 -8.95,1.9 -16.4,4.85 -7.5,2.95 -13.2,6.1 -5.75,3.1 -9.45,5.6 l -5.15,3.5 q -1.75,1.25 -3.15,1.1 -1.35,-0.15 -2.85,-1.5 -4.6,-4.1 -11.35,-8.1 -6.8,-4 -15.3,-7.25 -8.55,-3.25 -18.4,-5.2 -9.9,-1.9 -20.7,-1.95 -10.6,0 -20.4,2.25 -9.85,2.3 -18.25,6.7 -8.4,4.45 -14.7,10.95 -6.3,6.5 -9.8,14.95 -3.55,8.45 -3.6,18.75 0.05,10.45 3.75,19.5 3.7,9.1 10.25,16.9 6.55,7.8 15.15,14.3 8.6,6.55 18.45,11.9 9.9,5.35 20.25,9.5 10.35,4.15 20.45,7.25 10.05,3.05 19.05,5.05 l 16.1,2.95 11.55,0.95 5.65,-1.25 q 4.15,-1.3 10.05,-3.9 5.9,-2.6 12.55,-6.65 6.6,-4.05 13.05,-9.6 6.45,-5.55 11.75,-12.65 5.3,-7.1 8.45,-15.85 3.15,-8.75 3.25,-19.25 -0.1,-8.7 -3.3,-15.1 -3.25,-6.4 -8.85,-9.95 -5.6,-3.55 -12.75,-3.6 -6.95,0.1 -12.5,2.6 -5.55,2.45 -9.95,6.3 -4.4,3.8 -7.85,7.9 l -6.1,7.45 q -1.3,1.55 -2.9,1.8 -1.6,0.25 -2.85,-1.8 -2.4,-4.45 -5.9,-8.75 -3.55,-4.35 -8.1,-7.9 -4.55,-3.6 -10.1,-5.75 -5.5,-2.15 -11.9,-2.2 -7.65,0.1 -13.05,3.3 -5.4,3.25 -8.3,8.45 -2.9,5.25 -2.95,11.4 0.1,7.1 3.05,13.35 2.95,6.2 7.95,11.55 5,5.3 11.15,9.7 6.2,4.4 12.75,7.85 6.5,3.45 12.55,6 l 10.75,4.15 q 1.8,0.65 2.3,1.85 0.55,1.15 -0.4,2 -0.9,0.9 -3.4,0.7 -5.7,-0.55 -13.35,-2.15 -7.7,-1.6 -16.35,-4.35 -8.7,-2.8 -17.45,-6.7 -8.8,-3.95 -16.8,-9.1 -7.95,-5.15 -14.2,-11.55 -6.25,-6.45 -9.9,-14.2 -3.6,-7.7 -3.7,-16.8 0,-6.65 2.85,-13.2 2.8,-6.55 8.45,-11.9 5.7,-5.4 14.15,-8.65 8.5,-3.2 19.75,-3.3 10.2,0.1 19.7,3.4 9.45,3.3 17.45,8.9 7.95,5.55 13.7,12.45 0.85,0.95 2,0.95 1.1,-0.05 1.9,-0.8 l 3.15,-2.9 q 2.85,-2.5 7.75,-6 4.9,-3.55 11.4,-7 Q 196.3,51 204,48.7 q 7.75,-2.35 16.2,-2.45 7.65,0 15.05,2.6 7.45,2.65 13.5,7.9 6.05,5.3 9.7,13.35 3.65,8.05 3.7,18.95 -0.05,9 -2.9,17.85 -2.85,8.85 -7.75,17.1 -4.9,8.25 -11.1,15.5 -6.2,7.3 -13.05,13.2 -6.8,5.9 -13.5,10.05 -8.55,5.3 -16.6,9.15 -8,3.85 -14.75,6.3 -6.75,2.5 -11.5,3.6 l -1.05,0.25 -5.75,0.7 -7.3,-0.7 q -18,-1.95 -35.15,-6.3 Q 101.2,170.55 82.9,162.45 64.55,154.4 49.4,143.9 34.25,133.4 23.2,120.95 12.15,108.5 6.1,94.6 0.1,80.65 0,65.75 -0.05,56.9 2.8,47.7 5.65,38.45 11.85,29.95 18,21.45 27.95,14.7 37.85,7.95 51.95,4.05 66.05,0.1 84.75,0 97.8,0.05 109.6,2.35 q 11.85,2.25 22,5.9 10.1,3.7 18,7.9 7.85,4.2 12.95,8.15 1.75,1.35 3,1.35 1.25,0 2.55,-0.95 l 7.5,-4.85 q 4.8,-3 11.45,-6.35 6.65,-3.35 15,-6.4 8.4,-3 18.25,-4.9 9.85,-1.9 21.05,-1.95 11.3,0 22.3,1.9 11,1.9 21.15,5.8 10.1,3.9 18.65,9.85 8.55,5.9 14.9,13.95 6.35,8 9.9,18.2 3.5,10.15 3.55,22.5 0,11.4 -3.8,22.8"
         fill="#ffffff"
         fill-rule="evenodd"
         stroke="none"
         id="path3" /></g><g
       id="sprite0"
       transform="translate(160.6,43.85)"><use
         ffdec:characterId="66"
         height="87.699997"
         transform="translate(-160.6,-43.85)"
         width="321.20001"
         xlink:href="#shape2"
         id="use4" /></g><g
       id="shape2"
       transform="translate(160.6,43.85)"><path
         d="m 159,-25.3 q -1.6,2.95 -4.5,4.6 -3,1.65 -6.05,1.65 -3.15,0 -6.1,-1.65 -2.85,-1.65 -4.5,-4.6 -1.65,-3.05 -1.6,-6.15 -0.05,-3.2 1.6,-6.25 1.65,-3 4.55,-4.55 2.95,-1.6 6.05,-1.6 3.05,0 5.95,1.6 2.9,1.55 4.55,4.55 1.65,3 1.65,6.25 -0.05,3.15 -1.6,6.15 m -0.45,-6.15 q 0,-2.8 -1.35,-5.15 -1.35,-2.55 -3.8,-3.85 -2.45,-1.35 -4.95,-1.35 -2.6,0 -5.05,1.35 -2.4,1.3 -3.8,3.85 -1.35,2.45 -1.35,5.15 0,2.65 1.35,5.1 1.25,2.45 3.75,3.9 2.4,1.35 5.1,1.35 2.5,0 5.05,-1.35 2.4,-1.45 3.75,-3.9 1.3,-2.45 1.3,-5.1 M 126.7,-20.3 q 2.65,0.5 3.15,3.25 0.25,1.35 -0.05,2.65 l 6.6,3.15 q 6.7,3.9 7.05,8 0.75,8.15 -6.6,11.55 -3.7,1.65 -7.55,1.7 l -5.55,-3.1 q 2.2,-0.75 4.3,-2 4.15,-2.5 3.6,-5.2 -0.4,-1.9 -3.35,-2.7 l -2.95,-0.4 q -2.75,6 -6.8,8 -4.1,1.95 -9.55,0.8 l 0.6,4.65 2.45,-0.05 5.6,0.7 q 8.3,1.8 9.7,7.55 2.3,9.5 -8.15,17.4 -4.2,3.2 -9.25,5.1 -4.9,1.8 -8.5,1.75 -14.5,-0.25 -13.35,-10.15 0.45,-3.85 5.15,-7.15 5.9,-4.1 14.35,-2.85 3.4,0.5 3.1,4.3 -0.35,3.75 -3.75,4.8 -2.25,-4.05 -6.1,-3 -1.2,0.35 -2.05,1.5 -0.9,1.2 -0.8,2.45 0.35,3.2 7.15,2.9 7.9,-0.45 11.1,-6.25 1.2,-2.25 1.4,-4.6 0.15,-2.2 -0.5,-3.45 -1.6,-2.9 -6.15,-3.9 l -10.65,0.3 Q 94.8,18.5 88.25,24 85,26.75 82.85,29.2 V 17.15 l 6.3,-3 q 7.05,-3.1 11.2,-3.5 l -0.75,-6 q -10.8,6.6 -14.65,6 -2.35,-0.4 -3.85,-2.7 L 80.05,5.75 77.45,8.3 Q 74.1,12.35 70.4,19.45 70.3,19.6 60.9,8.75 69.9,-2 81.55,-8.05 q 3.5,-1.8 11.7,-4.4 l 7.4,-2.2 q 3.1,-4.85 0.5,-6.8 -4.25,-3.05 -17.2,4.55 -6.55,3.8 -12.2,8.2 l 3.65,-14.7 15.65,-3.9 q 16.4,-3.5 20.45,-1.35 4,2.1 2.3,7.8 -0.85,2.85 -2.45,5.3 l 8.3,-0.6 2.6,-2.65 q 2.05,-1.9 4.45,-1.5 m 26.45,-14.05 q 0,1.5 -1,2.55 -1,1 -2.75,1.2 l 1.15,0.7 1.9,2.65 1.65,2.65 h -2.6 l -1.15,-2.1 q -1.55,-2.65 -2.25,-3.1 -0.55,-0.5 -1.65,-0.5 h -1.3 v 5.7 h -2.05 l 2.5,-7.5 h -0.45 v -4.05 H 147 l 0.55,-1.8 3.4,0.4 q 1,0.3 1.65,1.25 0.55,0.85 0.55,1.95 m -2.55,-0.85 q -0.4,-0.55 -0.9,-0.75 l -2.1,-0.2 H 147 l -1.4,4.05 h 2.15 q 1.8,0 2.5,-0.55 0.7,-0.65 0.7,-1.55 l -0.35,-1 M 7.4,23.9 8.6,31.9 16.35,29.65 18,25.9 q 1.1,-4 -1.25,-5.1 -2.3,-1.2 -6.05,0.85 -1.9,1 -3.3,2.25 M 2.6,-0.6 Q -2.8,-2.25 -4.05,-1.2 -6,0.3 -5.2,2.5 q 0.8,2.35 4.2,2.35 4.85,0 8.7,-3.6 L 2.6,-0.6 m -9.75,18.35 -0.8,-0.15 q -0.25,-0.4 0.1,-1.05 0.65,-1.3 3.8,-2.6 3.1,-1.25 6.7,0.65 1.8,0.9 3,2.1 l 1.9,-1.3 q 2.35,-1.5 4.7,-2.45 7.4,-3 11.6,0.55 6.75,5.8 2.7,16.5 -2,5.35 -5.4,9.6 L 4.1,41.2 Q -4.7,40.6 -3.6,28.45 -3.1,21.65 -5.45,19 -6.2,18.1 -7.15,17.75 M -22.45,4.8 q 6.5,-0.3 7.5,1.7 1.15,2.35 -0.35,5.55 -1,2.15 -3.85,5.85 -3.15,3.9 -3.8,5.2 -1.45,2.5 -0.15,3.8 2.15,2.15 5.55,-2.55 l 3.05,-5.15 4.55,1.6 -0.95,2.5 q -1.3,3.05 -2.85,5.75 -4.95,8.6 -10.75,10.8 -4.5,1.6 -8.2,0.3 -3.3,-1.2 -4.7,-4.2 -2.6,-5.35 3.9,-12.7 l 4.6,-4.9 q 2,-2.45 1.45,-3.65 -0.85,-2.05 -5.25,0.4 -5.05,2.75 -9.45,9.3 -0.3,0.4 -5.25,-9.5 l 5,-3 q 5.65,-3.25 9.1,-4.7 4.55,-2.1 10.85,-2.4 M -26,-16.3 q -2.2,-1.3 -5.1,0.2 l -2.4,1.7 0.95,10.05 q 4.65,-1.65 5.6,-2.8 1.4,-1.7 2.15,-4.25 1.05,-3.55 -1.2,-4.9 M 5.25,-28.75 q 3.3,-1.8 7.45,-3.2 l 3.45,-1.05 7.2,11.2 -6.3,0.55 q -6.4,1 -6.9,3.4 -0.3,1.2 1.6,2 0.75,0.3 4.65,1.3 7.4,1.95 8.75,5.65 1.55,4.05 -1.8,7.3 l 2,0.9 4.85,2.8 q 7.65,5 11.9,11.95 L 34.65,22.5 Q 32.1,18.4 28.6,14.15 21.5,5.7 16,5.45 L 5.6,9.2 q -9.85,3.45 -12.9,2.15 -4.65,-1.9 -5.65,-8.1 -0.95,-6.15 2.5,-9.9 3.45,-3.75 13,-1.05 l 6.25,1.95 3.05,0.1 q 0.6,-1.4 -1.55,-2.5 l -5.2,-2 q -8.45,-2.8 -9.05,-5.95 -1.45,-7 9.2,-12.65 M 99.5,0 v -5.9 q 0,-1.2 -6.4,2.4 l -6.35,3.9 0.85,1.55 q 1.15,1.6 3,2 Q 93.45,4.6 99.5,0 m 9.85,1.85 q 3.9,0 5.85,-4.2 l 1.15,-4.25 -2.95,-0.15 -3.55,0.35 q -0.55,0.4 -0.7,4.35 -0.15,3.9 0.2,3.9 m -201.1,-1.15 -1.2,0.8 1.15,13.7 5.25,-1.75 q 1.2,-0.8 2.15,-2.5 1.85,-3.45 0.7,-8 -1.25,-4.7 -5.35,-3.5 -1.3,0.3 -2.7,1.25 m -1.85,-10.85 q 2.8,-1.35 5.4,-2.15 8.35,-2.55 12.2,1.45 4.4,4.6 3.8,16.15 -0.55,11.25 -4.8,14.95 -3.45,3.05 -13.8,4.65 l -9.75,0.95 q -2.55,-19.85 -3.5,-24.8 -0.65,-3.35 -3.6,-6.3 l -2.8,-2.35 1.9,-2.3 q 2.25,-2.4 4,-2.75 4.45,-1 8.75,3.7 l 2.2,-1.2 m -20,-22.65 q 0.4,2.3 0.3,4.4 -0.4,6.7 -5.8,8.95 -1.55,0.65 -12.45,4 -5.9,1.8 -5.55,3.75 0.5,3.3 16.55,3.9 8.3,0.35 9.05,1 1.45,1.3 2.1,3.55 0.55,2.1 -0.05,3.15 -0.35,0.55 -2.9,1.25 -2.9,0.75 -4.1,1.8 -2.35,2 -1.2,4.2 l 4.35,-0.1 q 4.65,0.35 6.4,2.35 2.95,3.4 2.35,9.25 -0.6,5.3 -2.35,5.6 l -8.5,-3 q 2.85,-4.55 0.85,-7.3 -1.3,-1.8 -2.35,-1.95 l -0.75,0.15 0.5,29.45 -10.2,2.25 q -5.95,0 -1.85,-16.7 1.2,-5.25 0.9,-8.65 -0.65,-2.85 -0.6,-3.9 0,-1.35 -6.7,7.2 -6.95,8.9 -8.55,14.85 -1.6,5.75 -8,1.85 -2,-1.2 -4.2,-3.2 l -1.8,-1.8 12.45,-13.05 11.35,-11.8 3.35,-3.15 q -3.55,0.65 -7.8,2.3 -8.55,3.4 -12.3,8.55 l -9.5,-8.8 3.7,-2.5 q 4.6,-2.8 9.25,-4.25 2,-0.7 9.35,-1.9 5.45,-0.9 5.15,-1.8 -0.2,-0.55 -3.4,-0.7 L -143.4,-4 q -9.8,-1 -9.45,-6.1 0.3,-5.75 9.8,-8.7 l 7.4,-2 q 3.9,-1.15 5.3,-2.4 2.3,-2.1 1.9,-4.7 l -0.9,-2.25 15.3,-4.55 0.45,1.9 m 62.8,13.95 q 0.7,-1.25 2.2,-2.95 3.1,-3.55 6.05,-3.8 4.75,-0.45 8.3,3.75 1.85,-2.25 4.85,-3.9 6.05,-3.45 11.8,-0.75 3.35,1.5 4.55,5.35 1.1,3.55 0.05,8 -1.15,4.5 -4,8.25 -3.15,4.05 -7.6,5.95 -4.85,2.05 -10.45,3.2 l -4.7,0.75 -5.7,-18.7 q -0.55,-1.95 -3,-3.75 -2.15,-1.7 -2.35,-1.4"
         fill="#ffffff"
         fill-rule="evenodd"
         stroke="none"
         id="path4" /></g><g
       id="button0"
       transform="translate(3.85,5.25)"><use
         ffdec:characterId="5"
         height="8.3000002"
         width="48.700001"
         xlink:href="#shape3"
         id="use5" /></g><g
       id="shape3"><path
         d="M 4.15,0.6 Q 4.8,1.2 4.8,2.4 V 2.65 H 3.35 V 2.55 L 3.1,1.55 Q 2.85,1.2 2.4,1.2 L 1.85,1.4 1.6,1.9 q 0,0.35 0.15,0.55 l 0.35,0.35 1.55,1 0.7,0.6 0.5,0.65 0.15,1 Q 5,7.1 4.35,7.7 3.75,8.3 2.55,8.3 1.3,8.3 0.65,7.6 0,6.9 0,5.7 V 5.35 H 1.45 V 5.7 L 1.6,6.55 2,6.95 2.55,7.1 3.2,6.8 3.45,6.2 3.25,5.55 2.6,5 1.25,4.1 0.4,3.2 Q 0.1,2.7 0.1,2.05 0.1,1.4 0.4,0.95 L 1.2,0.25 2.45,0 q 1.1,0 1.7,0.6 M 5.9,0.15 H 7.4 V 3.6 L 9.25,0.15 h 1.7 L 8.9,3.6 11,8.1 H 9.3 L 8,4.95 7.4,5.7 V 8.1 H 5.9 V 0.15 m 5.9,0 h 1.5 V 8.1 H 11.8 V 0.15 m 5.7,1.5 Q 17.25,1.35 16.65,1.35 H 15.9 V 3.7 h 0.75 L 17.5,3.4 17.8,2.5 17.5,1.65 m 1.6,-0.35 0.25,1.2 -0.25,1.2 -0.75,0.85 -1.1,0.3 H 15.9 V 8.1 H 14.4 V 0.15 h 2.85 q 0.65,0 1.1,0.3 L 19.1,1.3 m 3.95,-1.15 h 1.5 V 8.1 h -1.5 V 0.15 m 7.65,0 V 8.1 H 29.1 L 26.9,2.35 h -0.05 l 0.15,0.9 0.05,1.1 V 5.3 8.1 h -1.4 V 0.15 h 1.65 l 2.2,5.8 -0.15,-1 -0.05,-1 v -1 -2.8 h 1.4 m 6,0 v 1.2 H 34.85 V 8.1 H 33.3 V 1.35 h -1.85 v -1.2 h 5.25 m 4.35,2.3 -0.3,-0.9 -0.8,-0.2 h -1 V 3.6 h 1 l 0.55,-0.1 0.4,-0.35 0.15,-0.7 m 1.3,-1.3 0.25,1.05 -0.35,1.35 Q 41.9,4 41.4,4.1 q 0.4,0.1 0.65,0.3 l 0.35,0.55 0.05,0.55 v 1.05 l 0.05,0.65 0.1,0.5 0.25,0.15 V 8.1 h -1.5 L 41.05,7.55 40.95,6.8 V 5.9 L 40.9,5.3 40.6,4.9 Q 40.4,4.75 40.05,4.75 h -1.1 V 8.1 h -1.5 V 0.15 h 3.15 l 1.05,0.3 0.7,0.7 M 46.9,1.6 Q 46.6,1.25 46.15,1.2 45.6,1.25 45.35,1.55 45.1,1.9 45.1,2.55 V 5.8 q 0,0.6 0.25,0.95 0.25,0.35 0.8,0.35 0.45,0 0.75,-0.35 L 47.15,5.8 V 2.55 L 46.9,1.6 m 0.55,-1.35 q 0.6,0.3 0.9,0.85 0.35,0.6 0.35,1.65 V 5.6 q 0,1 -0.35,1.6 -0.3,0.6 -0.9,0.85 L 46.15,8.3 44.8,8.05 Q 44.2,7.8 43.9,7.2 43.55,6.6 43.55,5.6 V 2.75 q 0,-1 0.35,-1.6 0.3,-0.6 0.9,-0.9 L 46.15,0 l 1.3,0.25"
         fill="#ffffff"
         fill-rule="evenodd"
         stroke="none"
         id="path5" /></g></defs><g
     id="layer1"><path
       id="path827-2-7-3-4"
       style="font-variation-settings:normal;display:inline;vector-effect:none;fill:url(#linearGradient5);fill-opacity:1;fill-rule:nonzero;stroke:none;stroke-width:0.204791;stroke-linecap:butt;stroke-linejoin:miter;stroke-miterlimit:4;stroke-dasharray:none;stroke-dashoffset:0;stroke-opacity:1;-inkscape-stroke:none;stop-color:#000000"
       d="M 37.400237,0 C 25.821787,0 16.12166,3.93198 9.431781,10.621336 1.775567,18.276991 0,27.442799 0,35.469068 0,55.079656 11.984097,70.656343 25.527001,81.627062 42.270925,95.190852 65.00035,103.40384 65.00035,103.40384 c 0,0 22.728726,-8.212988 39.47269,-21.776778 C 118.0159,70.656343 130,55.079656 130,35.469068 130,27.442799 128.22446,18.276991 120.56825,10.621336 113.87834,3.93198 104.17895,0 92.600462,0 75.576769,0 65.00035,7.146623 65.00035,7.146623 65.00035,7.146623 54.423931,0 37.400237,0 Z" /><path
       id="path2185-4-4"
       style="font-variation-settings:normal;vector-effect:none;fill:#ffffff;fill-opacity:1;fill-rule:nonzero;stroke:none;stroke-width:0.107592;stroke-linecap:butt;stroke-linejoin:miter;stroke-miterlimit:4;stroke-dasharray:none;stroke-dashoffset:0;stroke-opacity:1;-inkscape-stroke:none;stop-color:#000000"
       d="m 38.623036,8.630342 c -20.315733,0 -27.566682,11.865419 -27.566682,21.385496 0,19.328719 25.046087,35.730147 53.389042,38.047613 1.740151,0.137461 8.772954,-1.925948 16.147757,-6.503854 7.188234,-4.472574 15.715941,-14.234735 15.715941,-23.977759 0,-9.432394 -7.088982,-13.906813 -13.640765,-13.906813 -9.165986,0 -16.837702,7.508057 -17.160787,7.825908 -0.320173,0.326907 -0.915373,0.387133 -1.275668,-0.04502 -3.678942,-4.427982 -9.926759,-8.04898 -16.519543,-8.04898 -9.79497,0 -14.704958,6.34096 -14.704958,12.042431 0,13.812258 21.273848,20.282169 29.839005,21.096253 1.632629,0.158925 1.645775,-1.088074 0.480933,-1.485776 -6.021652,-2.07626 -18.91466,-7.835143 -18.91466,-17.106896 0,-3.935814 2.949859,-7.513472 7.884576,-7.513472 5.559926,0 9.634716,4.202528 11.714304,7.988949 0.510827,0.936258 1.337096,0.646777 1.870524,0.0041 2.347214,-2.821819 5.811915,-7.880482 11.830274,-7.880482 4.610044,0 8.098096,3.697368 8.098096,9.317825 0,15.890895 -18.917572,22.487207 -21.049183,22.487207 -8.571373,0 -43.898626,-8.364481 -43.898626,-28.715463 0,-11.167471 10.289083,-17.44389 21.701342,-17.44389 9.355812,0 17.417723,3.792917 21.38686,7.322463 0.66078,0.582721 1.170182,0.671151 1.950339,0.137118 1.516172,-1.033591 9.614716,-7.175796 20.566202,-7.175796 14.358751,0 22.680261,8.975914 22.680261,17.956885 0,13.220596 -13.835576,23.781902 -19.233231,27.797937 -2.192758,1.625424 -1.27181,2.48858 0.815199,1.732725 3.659672,-1.309725 7.072996,-2.83444 9.983632,-4.617641 11.52444,-7.015671 18.24067,-17.299627 18.24067,-27.154648 0,-16.101808 -14.79904,-23.492732 -29.414698,-23.492732 -12.106563,0 -20.897393,6.006092 -23.815401,7.956203 -0.590108,0.393211 -1.040934,0.463907 -1.80981,-0.12893 C 59.534684,13.170786 49.876785,8.631025 38.623036,8.631025 Z m 48.497165,64.162627 -4.898697,9.606383 1.906679,0.93185 0.839756,-1.83027 h 4.271097 l 0.845897,1.80367 1.89167,-0.90525 z m -50.135068,0.287878 c -1.701065,0 -2.944266,1.408801 -2.944266,3.080701 0,1.395764 0.882068,2.314564 2.156355,2.737564 l 0.95368,0.31721 c 0.443926,0.14736 0.787912,0.41482 0.787912,0.9264 0,0.4981 -0.442206,0.80837 -0.911385,0.80837 -0.677766,0 -1.189113,-0.48426 -1.577188,-0.98233 l -1.492599,1.45986 c 0.801337,1.10429 1.741776,1.67201 3.110717,1.67201 1.672109,0 2.944267,-1.3963 2.944267,-3.04114 v -0.0403 c 0,-1.31473 -0.775265,-2.27992 -2.017873,-2.71096 l -0.995976,-0.34518 c -0.417207,-0.144737 -0.857494,-0.372447 -0.857494,-0.884097 0,-0.496143 0.37489,-0.857494 0.871138,-0.857494 0.650696,0 1.135269,0.540798 1.478954,1.036906 l 1.507606,-1.478955 c -0.787715,-1.050264 -1.658425,-1.698615 -3.013848,-1.698615 z m 33.107986,0 c -2.617417,0 -4.753392,2.211659 -4.753392,5.002385 0,2.81982 1.929276,5.0174 4.546694,5.0174 1.363736,0 2.934114,-0.70539 3.802442,-1.78321 l -1.239512,-1.54785 c -0.579757,0.69125 -1.419375,1.1747 -2.356232,1.1747 -1.461218,0 -2.521999,-1.25718 -2.521999,-2.86104 0,-1.602498 1.060781,-2.846031 2.521999,-2.846031 0.90916,0 1.63915,0.538548 2.134526,1.201992 l 1.434613,-1.575824 -0.111877,-0.137799 c -0.856242,-1.062559 -2.108019,-1.644723 -3.457262,-1.644723 z m -27.982806,0.152807 v 9.718938 h 5.423971 v -2.03629 h -3.31878 v -1.80435 h 3.180981 v -2.03697 h -3.180981 v -1.80299 h 3.304454 v -2.038338 z m 8.065351,0 v 9.718938 h 5.314823 v -2.03629 h -3.208949 v -7.682648 z m 7.576233,0 v 9.718938 h 5.424653 v -2.03629 h -3.318781 v -1.80435 h 3.180981 v -2.03697 h -3.180981 v -1.80299 h 3.303773 v -2.038338 z m 17.141004,0 v 2.036973 h 2.846716 v 7.681965 h 2.10519 v -7.681965 h 2.863088 v -2.036973 z m 12.187052,3.661914 1.247698,2.661164 h -2.468109 z" /></g></svg>
